<svg width="31" height="30" viewBox="0 0 31 30" fill="none" xmlns="http://www.w3.org/2000/svg">
<path d="M6.75 15.9499C6.75 14.2527 6.75 13.4041 7.09308 12.6582C7.43615 11.9123 8.08046 11.36 9.36906 10.2555L10.6191 9.18407C12.9482 7.18766 14.1128 6.18945 15.5 6.18945C16.8872 6.18945 18.0518 7.18766 20.3809 9.18407L21.6309 10.2555C22.9195 11.36 23.5638 11.9123 23.9069 12.6582C24.25 13.4041 24.25 14.2527 24.25 15.9499V21.2504C24.25 23.6074 24.25 24.7859 23.5178 25.5182C22.7855 26.2504 21.607 26.2504 19.25 26.2504H11.75C9.39298 26.2504 8.21447 26.2504 7.48223 25.5182C6.75 24.7859 6.75 23.6074 6.75 21.2504V15.9499Z" stroke="#EF4130" stroke-width="2"/>
<path d="M18.625 26.25V19.75C18.625 19.1977 18.1773 18.75 17.625 18.75H13.375C12.8227 18.75 12.375 19.1977 12.375 19.75V26.25" stroke="#EF4130" stroke-width="2" stroke-linecap="round" stroke-linejoin="round"/>
</svg>
