<svg width="185" height="105" viewBox="0 0 185 105" fill="none" xmlns="http://www.w3.org/2000/svg">
<path fill-rule="evenodd" clip-rule="evenodd" d="M33.0098 -0.140331C32.1172 0.628847 31.6106 2.22005 28.2012 14.9718L24.3907 29.2242L16.3188 29.4051L8.2472 29.5861L7.37562 30.6018C6.26047 31.9013 6.26878 33.1833 7.39874 34.3156L8.29346 35.2118L15.612 35.1137L22.9305 35.0156L23.6612 32.3309C24.0626 30.8545 24.6036 29.5756 24.8627 29.4891C25.7147 29.2046 27.8514 29.7943 28.5673 30.5113C29.5538 31.4995 29.488 33.4172 28.4336 34.4097C27.7477 35.0547 27.1638 35.1966 25.1951 35.1966H22.7932L22.3906 36.735C22.1691 37.5812 21.7449 39.1286 21.4479 40.1736L20.9073 42.074H12.9669H5.02609L4.13932 42.9626C2.94577 44.1578 3.00503 45.5018 4.30843 46.8074L5.36468 47.8654H12.4133H19.4619L20.0068 45.9651C20.3063 44.9201 20.6605 43.6167 20.7942 43.0694L21.037 42.074H29.9635C38.4474 42.074 38.9291 42.1105 39.6807 42.812C40.8465 43.8997 40.8602 45.7783 39.7111 46.9605C39.0509 47.6399 38.4026 47.6956 29.1816 47.8654L19.3556 48.0464L18.914 49.6752C18.6708 50.5711 18.2936 51.9962 18.0753 52.8424L17.6786 54.3808H9.72623H1.77389L0.887126 55.2694C0.327749 55.8294 0 56.5714 0 57.2765C0 57.9816 0.327749 58.7237 0.887126 59.2836C1.76811 60.1665 1.81978 60.1723 8.83693 60.1723C13.5429 60.1723 15.8996 60.2993 15.8996 60.5534C15.8996 60.7633 14.5987 65.8041 13.0088 71.7552C11.4188 77.7063 10.1179 82.8168 10.1179 83.1119C10.1179 83.4069 10.3734 83.9042 10.6856 84.2173C11.1969 84.7291 16.5078 84.7859 63.7488 84.7859C113.299 84.7859 116.274 84.7505 116.781 84.1525C117.343 83.4894 139.145 2.2986 139.13 0.926021C139.126 0.492386 138.866 -0.118251 138.554 -0.431352C138.043 -0.943172 132.778 -1 85.9967 -1H34.0078L33.0098 -0.140331ZM71.9096 24.0111C68.6979 24.6391 63.5237 27.1921 62.1993 28.8021C61.7548 29.3425 60.472 29.4051 49.8767 29.4051C37.689 29.4051 36.1004 29.5655 35.4052 30.8671C34.7996 32.0004 35.0138 33.3821 35.9386 34.308L36.8253 35.1966H46.7792C52.2537 35.1966 56.7327 35.3396 56.7327 35.5144C56.7327 35.6892 56.4877 36.4197 56.1878 37.1382C55.8882 37.8563 55.4683 39.2608 55.2548 40.2591L54.866 42.074H51.4468C48.298 42.074 47.9572 42.1442 47.1406 42.9626C46.1671 43.9377 46.037 44.8216 46.6646 46.2015C47.2132 47.4075 48.6853 47.8654 52.0167 47.8654H54.781L55.6519 50.6706C56.1307 52.2133 56.5817 53.6797 56.6539 53.9283C56.7537 54.2711 55.8098 54.3808 52.7607 54.3808C48.7414 54.3808 47.5966 54.649 46.7167 55.7972C45.9875 56.7488 46.1783 58.3201 47.1406 59.2836C48.0165 60.1614 48.1072 60.1723 54.5407 60.1723H61.0542L62.9589 61.6187C66.8604 64.5817 70.9712 65.9637 75.8845 65.9637C81.5426 65.9637 86.1589 64.1571 90.2802 60.3297C94.8105 56.1226 97.0021 51.0475 96.9909 44.7887C96.9855 41.6917 96.8254 40.7159 95.8834 38.0326C92.3573 27.9895 82.1356 22.0113 71.9096 24.0111ZM72.1329 29.7874C64.6399 31.658 59.3522 39.6604 60.6397 47.1809C62.1039 55.7331 70.1018 61.6172 78.3154 60.1846C88.8196 58.3523 94.4459 47.1911 89.6258 37.7467C88.2385 35.0279 85.2274 32.189 82.2914 30.8313C80.077 29.8069 79.2104 29.6086 76.6072 29.53C74.9179 29.479 72.9044 29.5948 72.1329 29.7874ZM137.179 31.1122C136.728 32.6295 115.272 113.015 115.272 113.189C115.272 113.295 116.004 113.381 116.898 113.381C118.43 113.381 118.525 113.323 118.531 112.386C118.556 108.387 120.901 102.829 123.926 99.5998C127.789 95.4748 132.585 93.4243 138.412 93.4054C144.176 93.387 148.698 95.389 152.719 99.7398C155.271 102.5 157.03 106.122 157.587 109.762C157.815 111.255 158.062 112.691 158.136 112.954C158.242 113.331 159.462 113.408 163.864 113.316C169.031 113.209 169.517 113.141 170.237 112.418C170.775 111.879 171.559 109.637 172.77 105.179C173.734 101.627 174.525 98.5997 174.529 98.4502C174.532 98.3007 171.843 98.1787 168.554 98.1787C161.933 98.1787 160.886 97.9173 159.906 96.0188C159.188 94.6285 159.214 93.6201 160.046 90.6118C161.514 85.3083 162.062 85.023 171.25 84.7859L178.265 84.605L181.629 72.1171C183.479 65.2488 184.996 59.2221 185 58.7244C185.005 58.1065 182.074 53.7998 175.763 45.1507C170.679 38.1828 166.125 32.0746 165.641 31.5769L164.762 30.672L151.067 30.5692C138.186 30.4726 137.36 30.5048 137.179 31.1122ZM74.9295 33.7491C73.2633 34.4155 72.9937 35.3805 72.9937 40.6789C72.9937 46.368 72.9684 46.3119 77.0575 49.7205C79.604 51.8431 81.1473 52.0791 82.3625 50.5313C83.6276 48.9205 83.348 47.9501 80.9435 45.6078L78.7754 43.4958V39.5474C78.7754 35.9593 78.7013 35.5173 77.9623 34.7032C76.9979 33.6405 75.9922 33.3242 74.9295 33.7491ZM142.559 38.901C142.38 39.4211 134.231 69.954 133.862 71.4837L133.623 72.4791H153.346H173.069L173.603 70.5788C173.897 69.5338 174.79 66.2352 175.588 63.249L177.039 57.8195L176.18 56.5526C175.707 55.8558 172.574 51.5394 169.217 46.9605L163.113 38.6353L152.915 38.539C144.945 38.4641 142.682 38.543 142.559 38.901ZM17.5716 55.0142C17.4708 55.3628 17.2059 56.3807 16.9837 57.2765C16.7614 58.1724 16.4966 59.1902 16.3958 59.5388C16.2342 60.0966 16.4969 60.1723 18.6018 60.1723C20.6572 60.1723 21.1154 60.0481 21.8782 59.2836C23.9192 57.2396 22.2284 54.3808 18.9784 54.3808C18.1241 54.3808 17.6999 54.5719 17.5716 55.0142ZM29.9925 54.8333C28.6966 55.5127 28.0823 56.9576 28.5575 58.209C29.2155 59.9428 29.8313 60.1484 34.3988 60.1607C38.3137 60.1715 38.6968 60.11 39.6049 59.3278C40.8165 58.2835 40.8888 56.448 39.7624 55.3183C39.1015 54.6552 38.5067 54.5491 34.9521 54.4604C32.136 54.3902 30.6198 54.5042 29.9925 54.8333ZM7.61628 91.9348C7.41789 92.6815 6.27312 96.9542 5.07306 101.43C2.80303 109.895 2.62127 111.009 3.3541 111.965C4.30301 113.203 5.32746 113.381 11.4976 113.381H17.6222L17.8654 111.107C19.4138 96.6219 35.33 88.6992 47.7556 96.2277C52.9707 99.3873 57.0663 106.319 57.0887 112.024L57.0941 113.381H83.0903C97.3884 113.381 109.164 113.256 109.258 113.104C109.443 112.804 115.272 91.1971 115.272 90.8109C115.272 90.6824 91.1308 90.5774 61.6251 90.5774H7.97763L7.61628 91.9348ZM165.862 90.9097C165.862 91.0925 165.763 91.4997 165.643 91.8146C165.449 92.3214 166.053 92.3872 170.882 92.3872C173.957 92.3872 176.341 92.2421 176.341 92.0549C176.341 91.8722 176.44 91.4649 176.561 91.15C176.755 90.6433 176.15 90.5774 171.321 90.5774C168.246 90.5774 165.862 90.7225 165.862 90.9097ZM34.148 99.3898C29.8996 100.498 26.7085 103.154 24.8157 107.155C23.7779 109.35 23.6687 109.907 23.6687 113.019C23.6687 116.125 23.7779 116.686 24.7962 118.811C27.5215 124.499 33.653 127.843 39.4737 126.816C44.2067 125.981 48.0241 123.16 50.0693 118.987C51.0399 117.007 51.1317 116.492 51.1317 113.019C51.1317 109.672 51.019 108.981 50.1886 107.228C47.3129 101.158 40.372 97.7664 34.148 99.3898ZM134.876 99.439C130.593 100.646 127.475 103.264 125.6 107.227C124.599 109.344 124.487 109.928 124.487 113.027C124.487 116.188 124.585 116.673 125.668 118.876C127.185 121.963 130.324 124.948 133.237 126.071C139.201 128.373 146.511 126.007 149.93 120.671C151.509 118.206 152.13 115.982 152.13 112.795C152.13 108.316 150.234 104.533 146.617 101.794C143.337 99.3109 138.659 98.3727 134.876 99.439ZM34.4064 104.425C32.7333 104.962 30.0105 107.474 29.2257 109.205C28.4253 110.97 28.3309 114.697 29.0439 116.405C29.7554 118.111 31.6735 120.175 33.391 121.084C35.4504 122.172 39.3465 122.177 41.3751 121.094C44.6169 119.363 46.3824 116.521 46.3929 113.019C46.4045 109.112 44.111 105.755 40.5628 104.487C38.9674 103.916 36.0816 103.887 34.4064 104.425ZM135.224 104.403C133.53 104.978 130.998 107.334 130.118 109.156C128.687 112.117 129.258 116.261 131.449 118.826C136.512 124.751 146.104 121.87 147.252 114.079C147.731 110.826 145.822 106.923 142.917 105.219C141.006 104.096 137.289 103.703 135.224 104.403ZM35.3087 110.49C34.0888 111.451 33.7628 113.021 34.4902 114.43C35.6025 116.585 38.0489 116.95 39.7769 115.219C41.1233 113.87 41.1648 112.384 39.8976 110.875C38.7521 109.511 36.7621 109.345 35.3087 110.49ZM136.468 110.172C136.101 110.385 135.571 111.113 135.289 111.789C134.845 112.853 134.846 113.187 135.292 114.257C136.248 116.549 138.804 117.013 140.595 115.219C141.941 113.87 141.983 112.384 140.716 110.875C139.98 109.999 139.498 109.764 138.457 109.772C137.729 109.779 136.834 109.958 136.468 110.172Z" fill="#B4B4B4" fill-opacity="0.14"/>
</svg>
