<svg width="36" height="36" viewBox="0 0 36 36" fill="none" xmlns="http://www.w3.org/2000/svg">
<path d="M15 22.5L15 18" stroke="#606B85" stroke-width="2" stroke-linecap="round"/>
<path d="M12 7.5L9 13.5M24 7.5L27 13.5" stroke="#606B85" stroke-width="2" stroke-linecap="round"/>
<path d="M21 22.5L21 18" stroke="#606B85" stroke-width="2" stroke-linecap="round"/>
<path d="M4.5 13.5V13.5C5.94957 13.5 6.67435 13.5 7.2058 13.8954C7.73725 14.2908 7.94323 14.9774 8.35518 16.3506L11.1448 25.6494C11.5568 27.0226 11.7628 27.7092 12.2942 28.1046C12.8256 28.5 13.5425 28.5 14.9761 28.5H21.0239C22.4575 28.5 23.1744 28.5 23.7058 28.1046C24.2372 27.7092 24.4432 27.0226 24.8552 25.6494L27.6448 16.3506C28.0568 14.9774 28.2628 14.2908 28.7942 13.8954C29.3256 13.5 30.0504 13.5 31.5 13.5V13.5" stroke="#606B85" stroke-width="2" stroke-linecap="round"/>
<path d="M4.5 13.5L31.5 13.5" stroke="#606B85" stroke-width="2" stroke-linecap="round"/>
</svg>
