<svg width="25" height="25" viewBox="0 0 25 25" fill="none" xmlns="http://www.w3.org/2000/svg">
<circle cx="12.5" cy="12.5" r="12.5" fill="#FD6767"/>
<ellipse cx="12.5" cy="12.019" rx="10.5769" ry="10.0962" fill="#FC3D3D"/>
<ellipse cx="12.5" cy="12.0194" rx="8.65385" ry="9.13461" fill="#FF4747"/>
<path d="M12.5 6.89551L13.2683 6.25532C13.0783 6.02733 12.7968 5.89551 12.5 5.89551C12.2033 5.89551 11.9218 6.02733 11.7318 6.25532L12.5 6.89551ZM9.48157 13.0742L10.4636 13.2629C10.4671 13.2449 10.47 13.2269 10.4725 13.2087L9.48157 13.0742ZM15.5185 13.0742L14.5276 13.2087C14.5301 13.2269 14.533 13.2449 14.5365 13.2629L15.5185 13.0742ZM15.5725 13.7468L14.5729 13.7183C14.5725 13.7351 14.5724 13.7518 14.5728 13.7685L15.5725 13.7468ZM15.5738 13.8627V14.8627C16.1261 14.8627 16.5738 14.415 16.5738 13.8627H15.5738ZM15.5671 13.8627V12.8627C15.0403 12.8627 14.6039 13.2714 14.5692 13.797L15.5671 13.8627ZM9.433 13.8627L10.4308 13.797C10.3962 13.2714 9.95977 12.8627 9.433 12.8627V13.8627ZM9.42627 13.8627H8.42627C8.42627 14.415 8.87398 14.8627 9.42627 14.8627V13.8627ZM9.42754 13.7468L10.4273 13.7685C10.4277 13.7518 10.4276 13.7351 10.4271 13.7183L9.42754 13.7468ZM12.5 6.89551C11.7318 6.25532 11.7317 6.25549 11.7315 6.25566C11.7315 6.25574 11.7313 6.25592 11.7312 6.25607C11.7309 6.25637 11.7307 6.25672 11.7303 6.25711C11.7297 6.2579 11.7289 6.25887 11.7279 6.26004C11.726 6.26238 11.7234 6.26548 11.7202 6.26933C11.7139 6.27702 11.7052 6.28771 11.6941 6.3013C11.6721 6.32848 11.6409 6.36727 11.6018 6.4169C11.5237 6.51611 11.4136 6.65888 11.2812 6.83892C11.0168 7.19831 10.6606 7.70975 10.2904 8.32243C9.56268 9.52655 8.7253 11.2108 8.49066 12.9397L10.4725 13.2087C10.6523 11.8837 11.3242 10.4786 12.0021 9.35687C12.3346 8.80661 12.6554 8.34597 12.8922 8.02404C13.0104 7.8634 13.107 7.73819 13.1729 7.65458C13.2058 7.6128 13.231 7.58148 13.2473 7.56139C13.2554 7.55135 13.2613 7.54412 13.2649 7.5398C13.2666 7.53764 13.2678 7.53621 13.2684 7.53552C13.2687 7.53518 13.2688 7.53502 13.2688 7.53505C13.2688 7.53506 13.2687 7.53512 13.2686 7.53523C13.2686 7.53528 13.2685 7.5354 13.2685 7.53543C13.2684 7.53555 13.2683 7.53569 12.5 6.89551ZM16.5094 12.9397C16.2748 11.2108 15.4374 9.52655 14.7097 8.32243C14.3394 7.70975 13.9833 7.19831 13.7189 6.83892C13.5865 6.65888 13.4764 6.51611 13.3983 6.4169C13.3592 6.36727 13.328 6.32848 13.3059 6.3013C13.2949 6.28771 13.2862 6.27702 13.2798 6.26933C13.2767 6.26548 13.2741 6.26238 13.2722 6.26004C13.2712 6.25887 13.2704 6.2579 13.2697 6.25711C13.2694 6.25672 13.2691 6.25637 13.2689 6.25607C13.2688 6.25592 13.2686 6.25574 13.2685 6.25566C13.2684 6.25549 13.2683 6.25532 12.5 6.89551C11.7318 7.53569 11.7317 7.53555 11.7316 7.53543C11.7316 7.5354 11.7315 7.53528 11.7314 7.53523C11.7313 7.53512 11.7313 7.53506 11.7313 7.53505C11.7313 7.53502 11.7314 7.53518 11.7317 7.53552C11.7322 7.53621 11.7334 7.53764 11.7352 7.5398C11.7388 7.54412 11.7447 7.55135 11.7528 7.56139C11.7691 7.58148 11.7943 7.6128 11.8272 7.65458C11.8931 7.73819 11.9897 7.8634 12.1079 8.02404C12.3447 8.34597 12.6655 8.80661 12.998 9.35687C13.6759 10.4786 14.3478 11.8837 14.5276 13.2087L16.5094 12.9397ZM14.5365 13.2629C14.5609 13.39 14.5738 13.5218 14.5738 13.6577H16.5738C16.5738 13.3945 16.5487 13.1363 16.5005 12.8855L14.5365 13.2629ZM14.5738 13.6577C14.5738 13.678 14.5735 13.6982 14.5729 13.7183L16.5721 13.7753C16.5733 13.7362 16.5738 13.697 16.5738 13.6577H14.5738ZM16.5738 13.8627C16.5738 13.8168 16.5733 13.7709 16.5723 13.7251L14.5728 13.7685C14.5735 13.8001 14.5738 13.8315 14.5738 13.8627H16.5738ZM15.5671 14.8627H15.5738V12.8627H15.5671V14.8627ZM14.5692 13.797C14.4981 14.8769 13.5985 15.7315 12.5 15.7315V17.7315C14.659 17.7315 16.425 16.0526 16.5649 13.9284L14.5692 13.797ZM12.5 15.7315C11.4016 15.7315 10.502 14.8769 10.4308 13.797L8.43516 13.9284C8.57506 16.0526 10.3411 17.7315 12.5 17.7315V15.7315ZM9.42627 14.8627H9.433V12.8627H9.42627V14.8627ZM8.42777 13.7251C8.42678 13.7709 8.42627 13.8168 8.42627 13.8627H10.4263C10.4263 13.8315 10.4266 13.8001 10.4273 13.7685L8.42777 13.7251ZM10.4271 13.7183C10.4266 13.6982 10.4263 13.678 10.4263 13.6577H8.42627C8.42627 13.697 8.42683 13.7362 8.42794 13.7753L10.4271 13.7183ZM10.4263 13.6577C10.4263 13.5218 10.4392 13.39 10.4636 13.2629L8.49954 12.8855C8.45135 13.1363 8.42627 13.3945 8.42627 13.6577H10.4263Z" fill="#C12B2B"/>
</svg>
