<svg width="202" height="35" viewBox="0 0 202 35" fill="none" xmlns="http://www.w3.org/2000/svg">
<path d="M17.4658 35C27.112 35 34.9317 27.165 34.9317 17.5C34.9317 7.83502 27.112 0 17.4658 0C7.81972 0 0 7.83502 0 17.5C0 27.165 7.81972 35 17.4658 35Z" fill="#EF4130"/>
<path d="M20.8186 9.38672H14.1174V12.8478H20.8186V9.38672Z" fill="#FFFAFA"/>
<path d="M20.8181 9.38672H17.4563V12.8478H20.8181V9.38672Z" fill="#FFFAFA"/>
<path d="M21.7872 14.8262H13.1448V18.2873H21.7872V14.8262Z" fill="#FFFAFA"/>
<path d="M21.787 14.8262H17.4563V18.2873H21.787V14.8262Z" fill="#FFFAFA"/>
<path d="M24.3745 19.7695H10.5571V28.4217H24.3745V19.7695Z" fill="#FFFAFA"/>
<path d="M24.3748 19.7695H17.4563V28.4217H24.3748V19.7695Z" fill="#FFFAFA"/>
<path d="M20.8179 12.7607H14.1167C12.9482 13.3333 11.4076 13.5192 9.37769 12.8604C9.37769 14.1391 10.4123 15.1758 11.6886 15.1758H23.243C24.5193 15.1758 25.5539 14.1391 25.5539 12.8604C23.5241 13.5192 21.9864 13.3334 20.8179 12.7607Z" fill="#FFFAFA"/>
<path d="M20.8178 12.7607H17.4561V15.1759H23.243C24.5193 15.1759 25.5539 14.1392 25.5539 12.8605C23.5241 13.5192 21.9863 13.3334 20.8178 12.7607Z" fill="#FFFAFA"/>
<path d="M21.7868 18.0166H13.1449C11.6326 18.7576 9.62522 18.9981 6.99805 18.1455C6.99805 19.8006 8.33712 21.1421 9.98887 21.1422H24.9428C26.5947 21.1422 27.9337 19.8005 27.9337 18.1455C25.3064 18.9982 23.2991 18.7577 21.7868 18.0166Z" fill="#FFFAFA"/>
<path d="M21.7868 18.0166H17.4561V21.1422H24.9428C26.5946 21.1422 27.9336 19.8005 27.9336 18.1455C25.3064 18.9982 23.2991 18.7577 21.7868 18.0166Z" fill="#FFFAFA"/>
<path d="M11.2109 8.7443C16.3105 10.3992 17.4658 5.16309 17.4658 5.16309C17.4658 5.16309 18.621 10.3992 23.7206 8.7443C23.7206 9.73325 22.9204 10.5348 21.9335 10.5348H12.9981C12.0111 10.5348 11.2109 9.73325 11.2109 8.7443Z" fill="#FFFAFA"/>
<path d="M17.4658 5.16309C17.4658 5.16309 17.4625 5.17771 17.4561 5.20376V10.5348H21.9335C22.9205 10.5348 23.7206 9.73312 23.7206 8.7443C18.6212 10.3992 17.4658 5.16309 17.4658 5.16309Z" fill="#FFFAFA"/>
<path d="M20.9204 23.2305H17.4563V28.4215H20.9204V23.2305Z" fill="#FFFAFA"/>
<path d="M20.9202 23.2305H14.0115V28.4215H20.9202V23.2305Z" fill="#EF4130"/>
<path d="M61.2776 5.77148L61.1504 9.88488C58.7151 9.69373 56.4221 9.59691 54.2663 9.59691C54.2414 12.0074 54.2289 14.6909 54.2289 17.6499C54.2289 22.2399 54.2963 26.5842 54.4285 30.6777H49.3185C49.4757 26.6214 49.5555 22.2797 49.5555 17.6499C49.5555 14.743 49.5306 12.057 49.4832 9.59691C47.7665 9.59691 45.4111 9.69869 42.417 9.90225L42.5642 5.77148H61.2776Z" fill="#EF4130"/>
<path d="M77.668 30.6777H72.8475C73.0047 28.4212 73.0845 25.8891 73.0845 23.084C73.0845 21.9495 73.1519 20.5395 73.2841 18.8564H73.0097C72.6928 19.8121 71.2456 21.8651 68.6632 25.0153C66.2778 27.9222 65.0851 29.8114 65.0851 30.6777H61.31C61.4672 27.8974 61.5471 24.8688 61.5471 21.592C61.5471 17.9056 61.34 14.9341 60.9258 12.6776L66.1106 12.124C65.9659 14.5717 65.8911 17.0095 65.8911 19.4323C65.8911 20.7083 65.8237 22.3467 65.6915 24.3475H65.9659C66.198 23.5432 67.5778 21.5548 70.1103 18.3798C72.4957 15.3835 73.6883 13.4819 73.6883 12.6801L77.6506 12.1265C77.5034 14.5742 77.431 17.7318 77.431 21.5945C77.431 24.6529 77.5108 27.6814 77.668 30.6777Z" fill="#EF4130"/>
<path d="M98.3875 21.5349C98.3875 24.7223 97.4294 27.1675 95.5131 28.8705C93.5969 30.5734 91.2914 31.4249 88.6016 31.4249C85.363 31.4249 83.1049 30.3947 81.8274 28.3367C80.5499 26.2763 79.9111 22.9449 79.9111 18.3425C79.9111 15.932 80.1482 13.8791 80.6222 12.1836C81.0963 10.488 81.8299 9.08547 82.8229 7.97583C83.816 6.86618 85.071 6.0147 86.5931 5.4214C88.1151 4.8281 89.9216 4.42347 92.015 4.20749C92.6712 4.14295 93.3873 4.04614 94.1608 3.91208C94.9343 3.77803 95.8325 3.6415 96.853 3.5L96.6334 7.78468C96.3166 7.82192 95.7202 7.89887 94.8444 8.01306C93.9686 8.12725 92.8658 8.27372 91.5409 8.45245C90.4081 8.60636 89.3951 8.80744 88.5018 9.05568C87.6061 9.30393 86.8451 9.67629 86.2188 10.1753C85.5925 10.6717 85.106 11.337 84.7592 12.1637C84.4123 12.9928 84.2152 14.0702 84.1653 15.3958H84.3475C85.7347 13.7127 87.6086 12.8712 89.9715 12.8712C92.4192 12.8712 94.4327 13.5737 96.0146 14.9763C97.5966 16.3764 98.3875 18.5634 98.3875 21.5349ZM93.6593 22.1257C93.6593 20.4674 93.2675 19.0996 92.4816 18.0222C91.6956 16.9449 90.5678 16.4062 89.0957 16.4062C87.0147 16.4062 85.4004 17.1583 84.2576 18.6627C84.2701 22.081 84.6519 24.4741 85.4079 25.8469C86.1614 27.2172 87.3241 27.9023 88.8961 27.9023C90.3457 27.9023 91.501 27.3537 92.3643 26.2565C93.2276 25.1617 93.6593 23.784 93.6593 22.1257Z" fill="#EF4130"/>
<path d="M116.405 19.6411C116.405 20.2915 116.367 21.1405 116.295 22.1856L104.538 22.3966C104.708 23.8389 105.299 25.0354 106.309 25.9936C107.32 26.9494 108.647 27.4285 110.289 27.4285C112.116 27.4285 114.057 27.1405 116.113 26.5671L115.748 30.2783C114.069 30.9163 111.988 31.2341 109.503 31.2341C106.362 31.2341 103.957 30.3106 102.282 28.4612C100.608 26.6118 99.7722 24.3875 99.7722 21.7859C99.7722 19.0701 100.566 16.7143 102.155 14.7184C103.744 12.7225 105.95 11.7246 108.775 11.7246C111.355 11.7246 113.271 12.4569 114.526 13.924C115.776 15.3887 116.405 17.2952 116.405 19.6411ZM112.133 19.4673C112.133 16.5356 110.94 15.0684 108.555 15.0684C106.279 15.0684 104.927 16.5852 104.503 19.6212L112.133 19.4673Z" fill="#EF4130"/>
<path d="M133.087 12.5039L132.977 16.3864C131.213 16.1953 129.459 16.0985 127.72 16.0985C127.683 17.8957 127.665 19.765 127.665 21.7038C127.665 24.9806 127.75 27.9719 127.92 30.6753H123.009C123.179 28.111 123.264 25.1221 123.264 21.7038C123.264 19.8296 123.234 17.9603 123.171 16.0985C121.407 16.0985 119.568 16.1953 117.657 16.3864L117.784 12.5039H133.087Z" fill="#EF4130"/>
<path d="M148.914 26.6607L148.604 30.3148C147.497 30.928 145.995 31.2333 144.096 31.2333C140.954 31.2333 138.542 30.3148 136.857 28.4778C135.171 26.6408 134.33 24.4364 134.33 21.8597C134.33 19.1811 135.213 16.8452 136.977 14.8493C138.741 12.8534 141.159 11.8555 144.225 11.8555C145.723 11.8555 147.055 12.0342 148.225 12.3917L147.604 16.2941C146.484 15.81 145.231 15.5667 143.844 15.5667C142.372 15.5667 141.209 16.1128 140.356 17.2026C139.502 18.2924 139.078 19.6354 139.078 21.2291C139.078 22.9644 139.582 24.4315 140.593 25.628C141.603 26.827 143.033 27.4253 144.884 27.4253C145.962 27.4253 147.307 27.1696 148.914 26.6607Z" fill="#EF4130"/>
<path d="M167.003 30.6775H162.11C162.013 30.4987 161.866 30.1537 161.671 29.6448C160.965 27.0804 160.239 25.3378 159.49 24.4118C158.742 23.4884 157.801 23.0241 156.671 23.0241C156.379 23.0241 155.977 23.0365 155.466 23.0614C155.466 25.5091 155.558 28.0486 155.74 30.675H150.847C151.029 28.1255 151.122 25.2112 151.122 21.9319C151.122 18.2455 150.902 15.1548 150.466 12.655L155.705 12.1387C155.548 14.2562 155.468 16.8454 155.468 19.9062C155.992 19.931 156.394 19.9434 156.673 19.9434C158.827 19.9434 160.404 17.7812 161.402 13.4593C161.474 13.1416 161.609 12.8213 161.803 12.5036H166.387C166.265 12.7965 166.053 13.3402 165.748 14.1296C164.361 18.1213 162.801 20.4623 161.075 21.1499V21.341C162.23 21.6985 163.196 22.4432 163.969 23.5802C164.743 24.7147 165.486 26.3804 166.205 28.5724C166.419 29.2501 166.686 29.9501 167.003 30.6775Z" fill="#EF4130"/>
<path d="M183.833 30.6577L179.524 30.8116C179.329 30.2754 179.232 29.7913 179.232 29.3569H178.995C177.655 30.5559 175.849 31.1542 173.573 31.1542C172.051 31.1542 170.788 30.7098 169.785 29.8236C168.78 28.9374 168.278 27.7607 168.278 26.2936C168.278 24.3548 169.059 22.7685 170.624 21.5298C172.188 20.2935 174.93 19.6357 178.848 19.5587C178.873 19.3304 178.885 19.1119 178.885 18.9083C178.885 17.5306 178.568 16.622 177.937 16.1826C177.303 15.7432 176.14 15.5223 174.449 15.5223C172.61 15.5223 170.816 15.778 169.062 16.2869L169.464 12.7668C171.118 12.1685 173.456 11.8682 176.475 11.8682C178.678 11.8682 180.38 12.3522 181.577 13.3229C182.775 14.291 183.376 15.989 183.376 18.4119C183.376 18.9481 183.354 19.9237 183.311 21.3386C183.269 22.7536 183.247 23.697 183.247 24.1686C183.249 26.8124 183.444 28.9746 183.833 30.6577ZM178.96 26.6784C178.888 24.9555 178.85 23.4711 178.85 22.2224C174.698 22.2224 172.625 23.3246 172.625 25.5315C172.625 27.0482 173.538 27.8079 175.364 27.8079C176.799 27.8079 177.997 27.433 178.96 26.6784Z" fill="#EF4130"/>
<path d="M201.997 30.6781H197.159C197.282 28.3818 197.341 26.0111 197.341 23.5609C196.575 23.484 195.832 23.4467 195.113 23.4467C193.811 23.4467 192.878 23.8092 192.311 24.5365C191.745 25.2639 190.951 27.3094 189.928 30.6781H185.327C186.313 27.58 187.144 25.4724 187.82 24.3553C188.496 23.2407 189.302 22.5729 190.24 22.3569V22.069C187.588 21.4186 186.261 19.8894 186.261 17.479C186.261 15.7065 186.857 14.3908 188.05 13.5294C189.242 12.668 190.807 12.2385 192.743 12.2385C194.312 12.2385 196.328 12.3155 198.786 12.4669L202 12.1045C201.843 14.9618 201.763 18.1169 201.763 21.5725C201.758 25.4103 201.838 28.4463 201.997 30.6781ZM197.341 20.3859C197.341 18.5489 197.304 16.9428 197.232 15.565C195.892 15.4508 194.584 15.3937 193.307 15.3937C191.578 15.3937 190.714 16.1782 190.714 17.7471C190.714 19.5568 191.999 20.4628 194.567 20.4628C195.248 20.4628 196.171 20.438 197.341 20.3859Z" fill="#EF4130"/>
</svg>
