<svg width="9" height="12" viewBox="0 0 9 12" fill="none" xmlns="http://www.w3.org/2000/svg">
<path fill-rule="evenodd" clip-rule="evenodd" d="M0.211961 0.0356713C0.11603 0.0773442 0.0187824 0.1966 0.000202063 0.295383C-0.0172977 0.388474 1.10762 11.6627 1.14396 11.7584C1.17687 11.845 1.25652 11.9262 1.34576 11.9641C1.45828 12.012 7.54172 12.012 7.65424 11.9641C7.74348 11.9262 7.82313 11.845 7.85604 11.7584C7.89238 11.6627 9.0173 0.388474 8.9998 0.295383C8.98075 0.194094 8.88268 0.0762666 8.78285 0.034664C8.67036 -0.0122092 0.319943 -0.0112253 0.211961 0.0356713ZM0.788633 0.766551C0.788633 0.807592 1.00486 2.91996 1.00953 2.92464C1.01256 2.92769 1.0936 2.90843 1.1896 2.88184C1.86181 2.69569 2.64159 2.65188 3.23778 2.76678C3.77783 2.87088 4.18655 3.05484 4.6761 3.41415C5.04411 3.68426 5.20955 3.77838 5.49542 3.88026C6.13126 4.10689 6.8022 4.10528 7.66455 3.87499L7.90464 3.8109L7.91756 3.71638C7.93222 3.60905 8.21137 0.817149 8.21137 0.777866C8.21137 0.759524 7.16514 0.752309 4.5 0.752309C2.45875 0.752309 0.788633 0.758728 0.788633 0.766551Z" fill="#EF4130"/>
</svg>
